<svg width="24" height="13" viewBox="0 0 24 13" fill="none" xmlns="http://www.w3.org/2000/svg">
<circle cx="12.0002" cy="6.50004" r="3.00001" fill="#0E1116"/>
<path d="M18.1612 10.2993C18.6995 9.14502 19.0001 7.85757 19.0001 6.49992C19.0001 5.14226 18.6995 3.85482 18.1612 2.70052" stroke="#0E1116" stroke-width="2" stroke-linecap="round"/>
<path d="M21.7826 0.999992C22.5637 2.67039 23 4.53425 23 6.50001C23 8.46578 22.5637 10.3296 21.7826 12" stroke="#0E1116" stroke-linecap="round"/>
<path d="M5.8389 10.2993C5.3006 9.14502 4.99999 7.85757 4.99999 6.49992C4.99999 5.14226 5.3006 3.85482 5.8389 2.70052" stroke="#0E1116" stroke-width="2" stroke-linecap="round"/>
<path d="M2.21747 0.999992C1.43641 2.67039 1.0001 4.53425 1.0001 6.50001C1.0001 8.46578 1.43641 10.3296 2.21747 12" stroke="#0E1116" stroke-linecap="round"/>
</svg>
