<svg width="24" height="13" viewBox="0 0 24 13" fill="none" xmlns="http://www.w3.org/2000/svg">
<circle cx="12.0003" cy="6.50004" r="3.00001" fill="#F0F6FE"/>
<path d="M18.1611 10.2993C18.6994 9.14502 19 7.85757 19 6.49992C19 5.14226 18.6994 3.85482 18.1611 2.70052" stroke="#F0F6FE" stroke-width="2" stroke-linecap="round"/>
<path d="M21.7827 0.999992C22.5638 2.67039 23.0001 4.53425 23.0001 6.50001C23.0001 8.46578 22.5638 10.3296 21.7827 12" stroke="#F0F6FE" stroke-linecap="round"/>
<path d="M5.83887 10.2993C5.30057 9.14502 4.99996 7.85757 4.99996 6.49992C4.99996 5.14226 5.30057 3.85482 5.83887 2.70052" stroke="#F0F6FE" stroke-width="2" stroke-linecap="round"/>
<path d="M2.21753 0.999992C1.43647 2.67039 1.00016 4.53425 1.00016 6.50001C1.00016 8.46578 1.43647 10.3296 2.21753 12" stroke="#F0F6FE" stroke-linecap="round"/>
</svg>
