<svg width="139" height="70" viewBox="0 0 139 70" fill="none" xmlns="http://www.w3.org/2000/svg">
<path d="M0 0H139V35C139 54.33 123.33 70 104 70H0V0Z" fill="#212936"/>
<path d="M67.7843 51.5511L71.8005 45.6679C71.8771 45.553 72.0084 45.5311 72.1233 45.6077L73.4529 46.5162C73.5678 46.5928 73.6116 46.6968 73.5076 46.8501L73.0535 47.6272C73.8469 47.2331 74.7661 47.1839 75.6963 47.8187C76.9985 48.7108 77.3159 50.3088 76.1997 51.9507L73.7101 55.5955C73.6335 55.7104 73.4912 55.7269 73.3763 55.6502L72.0084 54.7144C71.8935 54.6378 71.8716 54.5064 71.9482 54.3915L74.1642 51.1407C74.7661 50.2596 74.6786 49.5043 73.9235 48.9899C73.1793 48.4809 72.3695 48.6232 71.7676 49.5098L69.5516 52.7606C69.475 52.8756 69.3437 52.9029 69.2288 52.8208L67.8445 51.8795C67.7296 51.8029 67.7077 51.6715 67.7843 51.5566V51.5511Z" fill="#DFE4EC"/>
<path d="M80.6589 54.5776C80.9051 52.3447 82.7764 50.8069 85.0526 51.0586C87.3124 51.3103 88.8007 53.2203 88.5545 55.4532C88.3083 57.6861 86.437 59.2239 84.1772 58.9722C81.901 58.7205 80.4127 56.8105 80.6589 54.5776ZM84.3906 57.0184C85.4521 57.1388 86.3713 56.4602 86.5081 55.2288C86.6449 53.9975 85.9007 53.1328 84.8392 53.0178C83.7613 52.8974 82.8476 53.5761 82.7108 54.8074C82.574 56.0388 83.3181 56.9035 84.396 57.0184H84.3906Z" fill="#DFE4EC"/>
<path d="M94.0755 57.292C93.9551 57.2209 93.9114 57.0512 93.9606 56.8542L94.2342 55.9622C94.2944 55.7487 94.4367 55.7323 94.5789 55.7816C95.334 56.0333 95.914 56.1154 96.4721 55.9293C96.9591 55.7651 97.2163 55.4696 97.0795 55.0537C96.9591 54.7034 96.6855 54.6159 96.0836 54.5721L95.0495 54.5119C93.9989 54.4572 93.1508 54.0522 92.817 53.0561C92.352 51.677 93.2657 50.4894 94.6008 50.0406C95.5419 49.7232 96.5323 49.8163 97.3804 50.3362C97.5008 50.4073 97.5117 50.5387 97.468 50.6481L97.0849 51.6442C97.0193 51.7974 96.9153 51.8138 96.7457 51.7591C96.1438 51.5183 95.6623 51.4526 95.2355 51.5949C94.765 51.7536 94.6336 52.0929 94.7376 52.3994C94.858 52.7497 95.2136 52.8427 95.6568 52.8591L96.8004 52.9138C97.8346 52.974 98.7647 53.3681 99.1204 54.4736C99.591 55.9348 98.5951 57.1005 97.1561 57.5821C95.9523 57.9871 94.8689 57.7791 94.0701 57.292H94.0755Z" fill="#DFE4EC"/>
<path d="M102.918 50.5332C101.358 48.9187 101.205 46.6476 102.743 45.1644C103.563 44.3654 104.477 44.1301 105.396 44.3435L104.838 43.7196C104.74 43.6211 104.745 43.4898 104.844 43.3913L105.933 42.335C106.031 42.2365 106.162 42.242 106.261 42.335L111.218 47.4521C111.317 47.5506 111.3 47.6929 111.202 47.7914L110.124 48.8367C110.025 48.9352 109.894 48.9297 109.796 48.8367L109.194 48.2565C109.352 49.1814 109.101 50.0954 108.285 50.8835C106.748 52.3721 104.499 52.1586 102.923 50.5332H102.918ZM107.246 49.1705C108.056 48.3824 108.067 47.255 107.213 46.3739C106.359 45.4928 105.232 45.4654 104.422 46.2535C103.613 47.0416 103.58 48.2128 104.422 49.0775C105.276 49.9586 106.436 49.9531 107.246 49.165V49.1705Z" fill="#DFE4EC"/>
<path d="M105.396 37.7543C104.8 37.5026 104.51 36.824 104.778 36.1946C105.046 35.5652 105.719 35.3135 106.321 35.5707C106.934 35.8279 107.224 36.4901 106.961 37.1195C106.699 37.7489 106.015 38.0115 105.396 37.7543ZM115.207 43.6923C115.109 43.6485 115.131 43.5609 115.185 43.4624C115.322 43.2544 115.431 43.0793 115.503 42.9097C115.793 42.2256 115.503 41.9191 114.988 41.7002L107.985 38.734C107.859 38.6792 107.804 38.5588 107.864 38.4275L108.521 36.8732C108.575 36.7473 108.696 36.6981 108.827 36.7473L116.099 39.8285C117.724 40.5181 118.074 41.7221 117.44 43.2216C117.275 43.6047 117.122 43.8948 116.772 44.2012C116.695 44.2669 116.591 44.2724 116.504 44.2395L115.207 43.6923Z" fill="#DFE4EC"/>
<path d="M116.056 33.9781C115.35 33.8851 114.841 33.2557 114.934 32.5498C115.027 31.8438 115.683 31.3512 116.389 31.4443C117.079 31.5373 117.571 32.1776 117.484 32.8836C117.396 33.5896 116.75 34.0657 116.061 33.9781H116.056Z" fill="#DFE4EC"/>
<path d="M107.383 27.4163C106.737 27.5039 106.146 27.0715 106.053 26.3929C105.96 25.7198 106.414 25.1561 107.06 25.0685C107.722 24.9755 108.307 25.3969 108.4 26.0755C108.493 26.7541 108.039 27.3287 107.383 27.4163ZM110.113 26.9347C109.976 26.9511 109.872 26.8745 109.85 26.7377L109.621 25.063C109.604 24.9262 109.681 24.8222 109.818 24.8003L116.876 23.8371C117.013 23.8207 117.117 23.8973 117.139 24.0341L117.368 25.7088C117.385 25.8456 117.308 25.9496 117.172 25.9715L110.113 26.9347Z" fill="#DFE4EC"/>
<path d="M112.296 19.4534C110.343 20.5644 108.001 19.9515 106.868 17.9594C105.747 15.9782 106.42 13.6523 108.373 12.5468C110.326 11.4413 112.668 12.0488 113.79 14.0299C114.923 16.022 114.25 18.3479 112.296 19.4589V19.4534ZM112.083 14.9986C111.558 14.0683 110.469 13.7235 109.391 14.3364C108.313 14.9494 108.056 16.0603 108.581 16.9907C109.117 17.932 110.201 18.2768 111.278 17.6693C112.356 17.0619 112.619 15.9454 112.083 15.0041V14.9986Z" fill="#DFE4EC"/>
<path d="M86.3449 12.0135L81.5135 16.8459C81.5135 16.8459 81.5945 16.8729 81.6485 16.8729H82.4447L87.3031 12.0135H86.3449ZM85.7781 16.8729L85.7376 17.1428L90.8794 12H89.9212L85.0628 16.8594H85.7781V16.8729ZM73.8885 25.4307L77.0735 22.2451L77.2219 21.1383L72.9304 25.4307H73.8885ZM71.2029 16.8729H71.6888L76.5472 12.0135H75.589L64.8601 22.7446L64.6981 23.8514L71.095 17.4533L71.1759 16.8864L71.2029 16.8729ZM68.4364 12.0135L66.0477 14.4027L65.8857 15.5095L69.381 12.0135H68.4229H68.4364ZM85.1573 21.3273L94.4692 12.0135H93.511L85.3192 20.2069L85.1573 21.3138V21.3273ZM70.6766 20.5714V20.5309L64.2932 26.9155L64.1313 28.0224L71.5808 20.5714H70.6631H70.6766ZM72.0262 12.0135L65.4673 18.5736L65.3054 19.6805L72.9709 12.0135H72.0127H72.0262ZM46.9515 12.0135L43.4967 15.469L43.3347 16.5759L47.8962 12.0135H46.938H46.9515ZM43.9555 12.3914L44.2929 12.054C44.131 12.108 44.0095 12.2295 43.9555 12.3914ZM53.6723 34.1101H54.482L60.2176 28.3733L60.3795 27.2665L53.5643 34.0831C53.5643 34.0831 53.6318 34.1101 53.6858 34.1101H53.6723ZM83.4299 33.6106C83.4299 33.6781 83.4299 33.7456 83.4299 33.8131L89.7863 27.4554L89.9482 26.3486L83.5513 32.7467L83.4299 33.6106ZM61.2837 12.027L56.3174 16.9943L56.1555 18.1012L62.1879 12.0675C62.1879 12.0675 62.0665 12.027 61.9855 12.027H61.2702H61.2837ZM92.2424 16.8864H93.2006L96.3181 13.7683L96.4665 12.6614L92.2289 16.8998L92.2424 16.8864ZM50.1365 12.4319L42.9164 19.6535L42.7544 20.7603L50.3929 13.1204L50.1365 12.4319ZM74.3339 16.8864H75.2921L78.6929 13.4848L78.8279 12.5264C78.8279 12.5264 78.8279 12.4454 78.8279 12.4049L74.3474 16.8864H74.3339ZM51.1216 15.0236L42.3361 23.8109L42.1741 24.9178L51.378 15.712L51.1216 15.0236ZM82.7686 12.027L81.7024 13.0934L81.554 14.2002L83.7268 12.027H82.7686ZM69.4485 29.2507L69.5025 28.8728L64.2662 34.1101H65.2244L70.0828 29.2507H69.4485ZM71.4324 34.1101H72.3905L76.3312 30.1686L76.3852 29.7636C76.4122 29.5747 76.3312 29.4262 76.2098 29.3317L71.4324 34.1101ZM72.7144 29.2507L67.8561 34.1101H68.8142L73.6726 29.2507H72.7144ZM58.0583 34.1101L59.6238 32.5443L59.7857 31.4374L57.1136 34.1101H58.0718H58.0583ZM70.0153 25.4307H70.3122L75.1706 20.5714H74.2124L63.6994 31.0865L63.5375 32.1933L69.9479 25.7817L70.0018 25.4307H70.0153ZM53.092 20.2069L49.3942 23.9054L49.6506 24.5938L53.3484 20.8953L53.092 20.2069ZM83.9832 29.6692L90.3801 23.271L90.542 22.1641L84.1451 28.5623L83.9832 29.6692ZM86.7093 34.1101L89.1925 31.6264L89.3544 30.5195L85.7511 34.1236H86.7093V34.1101ZM84.577 25.4982L90.9739 19.1001L91.1358 17.9932L84.7389 24.3914L84.577 25.4982ZM75.2921 34.1101C75.5755 34.1101 75.8319 33.8941 75.8589 33.6106L75.9129 33.2192L75.0222 34.1101H75.2921ZM54.0906 22.8121L50.3929 26.5106L50.6493 27.199L54.3471 23.5005L54.0906 22.8121ZM57.7209 12.027L56.9247 12.8234L56.7628 13.9302L58.6656 12.027H57.7074H57.7209ZM55.6021 22.2721L61.9855 15.8875L62.1475 14.7806L55.7641 21.1653L55.6021 22.2721ZM52.1203 17.6288L48.4225 21.3273L48.6789 22.0157L52.3767 18.3172L52.1203 17.6288ZM55.1298 25.5657L55.0758 25.4172L51.378 29.1157L51.6345 29.8041L61.3917 20.0449L61.5537 18.9381L55.1703 25.3227L55.1298 25.5657ZM43.7396 34.1236L46.8166 31.046L46.9785 29.9391L42.7949 34.1236H43.7531H43.7396ZM52.6061 32.4093L60.7979 24.2159L60.9599 23.109L52.3497 31.7209L52.6061 32.4093ZM41 33.2732L47.3969 26.875L47.5588 25.7682L41.1619 32.1663L41 33.2732ZM41.5803 29.1022L47.9772 22.7041L48.1391 21.5972L41.7423 27.9954L41.5803 29.1022Z" fill="#DFE4EC"/>
</svg>
